<svg xmlns="http://www.w3.org/2000/svg" viewBox="0 0 286.054 286.054"><path d="M143.027 0C64.031 0 0 64.04 0 143.027c0 78.996 64.031 143.027 143.027 143.027s143.027-64.031 143.027-143.027C286.054 64.04 222.022 0 143.027 0zm0 259.236c-64.183 0-116.209-52.026-116.209-116.209S78.844 26.818 143.027 26.818s116.209 52.026 116.209 116.209-52.026 116.209-116.209 116.209zm30.205-79.031h-32.038c15.661-18.459 40.852-39.753 40.852-63.736 0-21.91-16.564-35.882-39.216-35.882-22.661 0-43.847 17.977-43.847 39.717 0 6.731 4.604 12.586 13.445 12.586 17.691 0 8.108-28.498 29.294-28.498 7.554 0 13.266 6.204 13.266 13.284 0 6.204-3.138 11.558-6.454 16.046-13.999 18.969-30.581 34.496-45.867 51.579-1.841 2.065-4.246 5.176-4.246 8.796 0 7.938 6.266 11.38 14.365 11.38h61.528c6.999 0 13.266-4.568 13.266-12.497 0-7.93-6.249-12.775-14.348-12.775z" fill="#2394bc"/></svg>