<svg xmlns="http://www.w3.org/2000/svg" viewBox="0 0 286.054 286.054"><path d="M143.027 0C64.04 0 0 64.04 0 143.027c0 78.996 64.04 143.027 143.027 143.027s143.027-64.031 143.027-143.027C286.054 64.04 222.014 0 143.027 0zm0 259.236c-64.183 0-116.209-52.026-116.209-116.209S78.844 26.818 143.027 26.818s116.209 52.026 116.209 116.209-52.026 116.209-116.209 116.209zm7.473-133.819c-3.915 0-8.01.679-11.228 2.047l-.349-.349c5.873-7.983 17.458-18.844 24.583-27.166 2.136-2.548 3.737-4.586 3.737-6.955 0-6.123-7.652-12.408-12.64-12.408-1.43 0-3.388 0-5.346 1.198-2.145 1.35-4.282 2.718-5.712 4.076-17.995 15.956-45.25 51.955-45.25 77.61 0 22.58 17.288 42.112 44.723 42.112 26.371 0 44.723-20.042 44.723-42.112 0-20.059-15.849-38.053-37.241-38.053zm-7.482 55.7c-10.691 0-16.931-8.153-16.931-17.664 0-10.021 6.776-17.673 16.931-17.673 11.228 0 16.931 8.671 16.931 17.673 0 9.851-6.776 17.664-16.931 17.664z" fill="#2394bc"/></svg>