<svg xmlns="http://www.w3.org/2000/svg" viewBox="0 0 445.357 445.357"><path d="M269.22 264.928c0 17-10.58 31.52-25.51 37.34a39.95 39.95 0 0 1-14.55 2.73c-22.13 0-40.07-17.94-40.07-40.07 0-19.121 13.399-35.11 31.32-39.1 2.82-.63 5.74-.96 8.75-.96 22.12-.001 40.06 17.93 40.06 40.06" fill="#fc7a51"/><path d="M229.16 224.867c-3.01 0-5.93.33-8.75.96l23.3 76.44c14.93-5.82 25.51-20.34 25.51-37.34 0-22.129-17.94-40.06-40.06-40.06" fill="#fda589"/><path d="M128.26 267.217c0 26.8-16.44 49.76-39.79 59.341-7.5 3.09-15.719 4.79-24.34 4.79-35.42 0-64.13-28.71-64.13-64.13 0-30.99 22-56.86 51.24-62.83 4.16-.84 8.469-1.29 12.89-1.29 35.42-.001 64.13 28.71 64.13 64.119" fill="#86d359"/><path d="M64.13 203.097c-4.42 0-8.73.45-12.89 1.29l37.229 122.17c23.35-9.581 39.79-32.54 39.79-59.341.001-35.408-28.709-64.119-64.129-64.119" fill="#ade18e"/><path d="M384.134 328.444c-33.758 0-61.223-27.464-61.223-61.222S350.376 206 384.134 206s61.223 27.464 61.223 61.222-27.465 61.222-61.223 61.222zm0-109.445c-26.59 0-48.223 21.633-48.223 48.222s21.633 48.222 48.223 48.222 48.223-21.633 48.223-48.222-21.633-48.222-48.223-48.222z" fill="#b3b3b3"/><path d="M397.684 236.741l-3.611 3.991 15.372 13.908h-50.62l15.372-13.908-3.611-3.991-21.74 19.669 10.026 41.292h50.527l10.026-41.292-21.741-19.669zm-16.242 30.426h-11.138l-.96-7.144h12.098v7.144zm5.383-7.144h12.098l-.959 7.144h-11.138l-.001-7.144zm-21.952 7.144h-7.878l-1.735-7.144h8.653l.96 7.144zm-6.571 5.383h7.294l1.012 7.536h-6.477l-1.829-7.536zm12.725 0h10.415v7.536h-9.403l-1.012-7.536zm15.798 0h10.415l-1.012 7.536h-9.403v-7.536zm15.846 0h7.294l-1.83 7.536h-6.477l1.013-7.536zm.723-5.383l.96-7.144h8.653l-1.735 7.144h-7.878zm-40.292 25.152l-1.664-6.851h5.893l.92 6.851h-5.149zm9.661-6.85h8.68v6.851h-7.76l-.92-6.851zm14.062 6.85v-6.851h8.68l-.92 6.851h-7.76zm13.191 0l.92-6.851h5.893l-1.664 6.851h-5.149z" fill="#29abe2"/><path d="M87.394 282.716c0-12.828-10.436-23.264-23.264-23.264-4.262 0-7.729-3.467-7.729-7.729 0-4.262 3.467-7.729 7.729-7.729h15.497V228.46h-7.733v-13.334H56.359v14.698c-9.012 3.208-15.493 11.801-15.493 21.9 0 12.827 10.436 23.263 23.263 23.263 4.262 0 7.73 3.467 7.73 7.729s-3.468 7.729-7.73 7.729H48.634v15.534h7.726v13.338h15.534v-14.698c9.015-3.206 15.5-11.801 15.5-21.903z" fill="#fff"/><path d="M286.76 352.297c-3.66-3.77-9.69-3.82-13.4-.11l-13.16 13.17c-7.57 7.56-20.5 2.2-20.5-8.49v-80.072c0-4.951-3.723-9.268-8.661-9.623a9.297 9.297 0 0 0-7.289 2.715 9.285 9.285 0 0 0-2.74 6.61v40.98c0-2.52-.99-4.81-2.62-6.5a9.427 9.427 0 0 0-2.17-1.7 9.357 9.357 0 0 0-4.62-1.21c-2.6 0-4.94 1.05-6.65 2.76a9.37 9.37 0 0 0-2.75 6.65v3.2c0-2.52-1-4.81-2.61-6.5a9.37 9.37 0 0 0-2.32-1.78 9.394 9.394 0 0 0-4.48-1.13 9.37 9.37 0 0 0-6.65 2.75 9.42 9.42 0 0 0-2.76 6.66v7.88c0-2.52-.99-4.82-2.61-6.5l-.14-.15c-.51-.51-1.07-.96-1.69-1.34a9.35 9.35 0 0 0-6.197-1.34c-4.736.611-8.173 4.846-8.173 9.622v45.959c0 2.87.49 5.7 1.43 8.37.95 2.67 2.35 5.18 4.16 7.41l.072.088c5.454 6.66 8.662 14.871 8.662 23.479v16.198h60.932v-13.932c0-6.245 3.554-11.871 9.076-14.787l.088-.047a56.879 56.879 0 0 0 15-11.58l20.53-22.22 2.39-2.58a9.133 9.133 0 0 0 2.23-4.24 9.32 9.32 0 0 0-2.38-8.67z" fill="#fcd18b"/><path d="M183.382 328.554v20.898c0 .722-.587 1.301-1.309 1.301a1.297 1.297 0 0 1-1.302-1.301v-27.398a9.36 9.36 0 0 1 2.611 6.5zm18.815-7.877v23.712a1.31 1.31 0 0 1-1.309 1.309 1.303 1.303 0 0 1-1.301-1.309v-30.212a9.378 9.378 0 0 1 2.61 6.5zm18.814-3.197v30.234a1.31 1.31 0 0 1-2.618 0V310.98a9.317 9.317 0 0 1 2.618 6.5z" fill="#ddb57a"/><path d="M236.355 276.485a6 6 0 1 0-12 0c0 3.314 2.686 3.489 6 3.489s6-.175 6-3.489zm52.785 84.482a9.133 9.133 0 0 1-2.23 4.24l-2.39 2.58-6.71-6.72a8.083 8.083 0 0 1 11.33-.1z" fill="#fff"/><path d="M264.719 66.133v-7h-66.597a48.54 48.54 0 0 0-43.543 27.09 19.564 19.564 0 0 0-2.035 8.663c.007 5.197 2.066 10.047 5.536 13.651a19.484 19.484 0 0 0 6.239 4.342 19.599 19.599 0 0 0 7.853 1.623h118.495a19.616 19.616 0 0 0 7.853-1.623 19.6 19.6 0 0 0 8.568-7.265 19.642 19.642 0 0 0 3.207-10.728 19.577 19.577 0 0 0-2.033-8.661 48.539 48.539 0 0 0-43.543-27.091v13.999a34.54 34.54 0 0 1 30.984 19.276c.424.868.59 1.675.593 2.476.007 1.424-.596 2.883-1.613 3.932a5.495 5.495 0 0 1-1.758 1.228 5.59 5.59 0 0 1-2.258.457H172.173a5.573 5.573 0 0 1-2.258-.457 5.598 5.598 0 0 1-2.439-2.084 5.646 5.646 0 0 1-.931-3.076 5.54 5.54 0 0 1 .594-2.476 34.54 34.54 0 0 1 30.984-19.277h66.597v-6.999h-.001z" fill="#999"/><path d="M238.421 66.133c0-9.091-4.227-17.739-11.594-23.226a7.789 7.789 0 0 1-2.272-2.679 7.645 7.645 0 0 1-.829-4.002l.008-.123-.007.106c.115-1.876.939-3.608 2.258-4.931 1.322-1.318 3.055-2.142 4.931-2.258a7.668 7.668 0 0 1 3.503.587 7.764 7.764 0 0 1 3.398 2.801 7.633 7.633 0 0 1 1.313 4.305h14a21.68 21.68 0 0 0-1.709-8.453 21.762 21.762 0 0 0-7.858-9.545 21.655 21.655 0 0 0-13.515-3.669c-5.448.339-10.358 2.724-13.962 6.331-3.607 3.603-5.992 8.514-6.331 13.963l.001-.016a21.648 21.648 0 0 0 2.346 11.298 21.788 21.788 0 0 0 6.366 7.513c3.739 2.778 5.952 7.242 5.953 11.995h14v.003z" fill="#999"/><path fill="#2be0c6" d="M137.03 265.307h30v9h-30zm148.5 0h30v9h-30zm-60.873-127.178h9v64.678h-9zm51.197 86.855l-6.364-6.363 93.935-93.935 6.363 6.364zm-93.38.005l-93.311-93.312 6.363-6.363 93.312 93.312z"/><path d="M396.886 106.948l26.241 26.241a6 6 0 0 0 8.485-8.485l-26.241-26.241a6 6 0 0 0-8.485 8.485" fill="gray"/><path d="M405.725 107.301c-12.485 12.485-32.799 12.485-45.284 0s-12.485-32.799 0-45.284 32.8-12.485 45.285 0c12.484 12.484 12.484 32.799-.001 45.284zm-36.092-36.092c-7.416 7.416-7.416 19.483 0 26.899 7.417 7.416 19.483 7.417 26.899 0 7.417-7.416 7.417-19.484 0-26.9-7.415-7.415-19.483-7.415-26.899.001z" fill="#29abe2"/><path d="M86.53 122.815h-52v-52h52v52zm-44-8h36v-36h-36v36z" fill="#f9de58"/><path d="M76.08 74.815h-8v-22.45a7.504 7.504 0 0 0-2.208-5.342 7.504 7.504 0 0 0-5.342-2.208c-4.163 0-7.55 3.387-7.55 7.55v22.45h-8v-22.45c0-8.574 6.976-15.55 15.55-15.55 4.157 0 8.063 1.616 10.998 4.552a15.447 15.447 0 0 1 4.552 10.999v22.449z" fill="#f9de58"/></svg>