<svg xmlns="http://www.w3.org/2000/svg" viewBox="0 0 512 512"><path d="M504 24H8a8 8 0 0 0-8 8v448a8 8 0 0 0 8 8h496a8 8 0 0 0 8-8V32a8 8 0 0 0-8-8z" fill="#f3f1f1"/><path d="M24 480V32a8 8 0 0 1 8-8H8a8 8 0 0 0-8 8v448a8 8 0 0 0 8 8h24a8 8 0 0 1-8-8z" fill="#e6e3e2"/><path d="M504 24H8a8 8 0 0 0-8 8v64h512V32a8 8 0 0 0-8-8z" fill="#c4a0de"/><path d="M32 24H8a8 8 0 0 0-8 8v64h24V32a8 8 0 0 1 8-8z" fill="#ae85cc"/><path d="M280 376h-48c-17.645 0-32 14.355-32 32s14.355 32 32 32h48c17.645 0 32-14.355 32-32s-14.355-32-32-32z" fill="#a89c9a"/><path d="M288 424h-48c-17.645 0-32-14.355-32-32 0-1.95.185-3.857.521-5.713C203.237 391.997 200 399.626 200 408c0 17.645 14.355 32 32 32h48c15.695 0 28.777-11.36 31.479-26.287C305.63 420.033 297.271 424 288 424z" fill="#9b8e8b"/><path d="M384 184H128a8 8 0 0 0-8 8v160a8 8 0 0 0 8 8h256a8 8 0 0 0 8-8V192a8 8 0 0 0-8-8z" fill="#cdc6c5"/><path fill="#dad5d4" d="M136 200h240v144H136z"/><path d="M440 72h-1a8 8 0 0 1 0-16h1a8 8 0 0 1 0 16zm32 0h-1a8 8 0 0 1 0-16h1a8 8 0 0 1 0 16zm-65 0h-1a8 8 0 0 1 0-16h1a8 8 0 0 1 0 16z" fill="#9968bd"/><path d="M469.657 395.716l-50.912-50.912 28.284-28.285c4.269-4.269 2.257-11.79-3.552-13.375l-124.451-33.941c-5.862-1.598-11.422 3.961-9.823 9.823l33.941 124.451c1.585 5.808 9.106 7.823 13.375 3.552l28.285-28.284 50.912 50.912c3.082 3.082 8.231 3.082 11.313 0l22.627-22.627a8 8 0 0 0 .001-11.314z" fill="#ffc44f"/><path d="M447.716 417.657l-50.912-50.912-28.285 28.284c-4.269 4.271-11.79 2.257-13.375-3.552L322.02 270.02l-2.993-.816c-5.862-1.598-11.422 3.961-9.823 9.823l33.941 124.451c1.585 5.808 9.106 7.823 13.375 3.552l28.285-28.284 50.912 50.912c3.082 3.082 8.231 3.082 11.313 0l12-12c-3.083 3.081-8.232 3.081-11.314-.001z" fill="#ffb357"/><path d="M288 168H128a8 8 0 0 1 0-16h160a8 8 0 0 1 0 16zm104 0h-72a8 8 0 0 1 0-16h72a8 8 0 0 1 0 16z" fill="#cdc6c5"/></svg>