<svg xmlns="http://www.w3.org/2000/svg" viewBox="0 0 512 512"><path d="M129.58 285.94h-22.536v164.824h22.536c4.132 0 7.512-3.282 7.512-7.293v-150.02c0-4.131-3.38-7.511-7.512-7.511z" fill="#e6e9ed"/><path d="M107.045 443.251v15.464c0 4.132-3.38 7.512-7.512 7.512H7.512c-4.132 0-7.512-3.38-7.512-7.512V278.426c0-4.132 3.38-7.512 7.512-7.512h92.021c4.132 0 7.512 3.38 7.512 7.512v164.825z" fill="#656d78"/><path d="M360.955 353.768l16.522-7.512c37.56-15.026 90.143-41.008 90.143-41.008 14.423-8.261 32.749-3.448 41.024 10.958 8.259 14.437 0 30.05-10.974 41.024 0 0-135.216 109.216-180.29 109.216-45.071 0-180.288-30.048-180.288-30.048V301.183c75.119-12.471 100.81 7.512 210.335 42.518 6.016 2.555 10.065 6.164 12.618 10.537l.91-.47z" fill="#ffdecf"/><g fill="#ffcdbe"><path d="M508.644 316.207c-3.023-5.266-7.41-9.214-12.428-11.751-1.833 8.376-7.189 16.344-13.573 22.725 0 0-120.19 106.46-165.264 106.46-35.916 0-143.931-16.286-180.288-24.032v26.79s135.216 30.048 180.288 30.048c45.073 0 180.29-109.216 180.29-109.216 10.975-10.975 19.234-26.587 10.975-41.024z"/><path d="M336.909 399.411c12.177 0 24.545-6.763 32.734-18.281 7.877-11.077 9.462-23.71 4.386-33.289l-13.074 5.927-.587.293c.104.16.323.454.398.571 2.51 4.388 1.19 11.372-3.374 17.798-5.018 7.072-14.277 13.41-23.637 11.679-14.73-2.699-101.807-14.584-105.505-15.083-4.065-.587-7.894 2.318-8.451 6.426-.558 4.108 2.318 7.894 6.426 8.451.894.117 90.438 12.338 104.801 14.965 1.95.366 3.917.543 5.883.543z"/></g><path d="M77.773 458.935h-.162c-4.138 0-7.424 3.374-7.424 7.512h15.098c0-4.138-3.374-7.512-7.512-7.512zm165.382-238.102c-23.472 0-42.567-19.094-42.567-42.567s19.095-42.569 42.567-42.569 42.568 19.096 42.568 42.569c0 23.472-19.096 42.567-42.568 42.567z" fill="#ffce54"/><path d="M243.155 220.833c-23.472 0-42.567-19.094-42.567-42.567v30.048c0 23.473 19.095 42.567 42.567 42.567s42.568-19.094 42.568-42.567v-30.048c0 23.472-19.096 42.567-42.568 42.567z" fill="#f6bb42"/><path d="M243.155 195.793a7.511 7.511 0 0 1-7.512-7.512v-20.032a7.511 7.511 0 0 1 7.512-7.512 7.511 7.511 0 0 1 7.512 7.512v20.032a7.511 7.511 0 0 1-7.512 7.512z" fill="#dca746"/><path d="M378.369 180.769c-37.28 0-67.609-30.329-67.609-67.609 0-37.278 30.329-67.607 67.609-67.607 37.279 0 67.607 30.329 67.607 67.607 0 37.28-30.328 67.609-67.607 67.609z" fill="#ffce54"/><path d="M378.369 180.769c-37.28 0-67.609-30.329-67.609-67.609v30.046c0 37.28 30.329 67.609 67.609 67.609 37.279 0 67.607-30.329 67.607-67.609V113.16c0 37.28-30.328 67.609-67.607 67.609z" fill="#f6bb42"/><path d="M378.365 140.708h-.001a7.51 7.51 0 0 1-7.511-7.512l.008-40.069a7.511 7.511 0 0 1 7.512-7.51h.001a7.513 7.513 0 0 1 7.511 7.514l-.008 40.067a7.511 7.511 0 0 1-7.512 7.51z" fill="#dca746"/></svg>