<svg xmlns="http://www.w3.org/2000/svg" viewBox="0 0 448.517 448.517"><path d="M437.249 55.482v269.9c0 13.69-11.1 24.79-24.8 24.79H36.059c-13.69 0-24.79-11.1-24.79-24.79v-269.9c0-13.69 11.1-24.79 24.79-24.79h376.39c13.7 0 24.8 11.1 24.8 24.79" fill="gray"/><path fill="#fff" d="M66.768 56.693h328.483v267.484H66.768V56.693"/><path d="M50.274 190.433c0 6.55-4.66 12.01-10.85 13.24-.86.17-1.74.26-2.65.26-7.45 0-13.5-6.04-13.5-13.5 0-5.61 3.44-10.43 8.32-12.47 1.59-.66 3.34-1.03 5.18-1.03 7.459 0 13.5 6.05 13.5 13.5" fill="#4d4d4d"/><path d="M36.774 176.933c-1.84 0-3.59.37-5.18 1.03l7.83 25.71c6.19-1.23 10.85-6.69 10.85-13.24 0-7.45-6.041-13.5-13.5-13.5" fill="#adadad"/><path d="M144.2 180.12v48.99H80.456v-48.99a13.731 13.731 0 0 0 5.083-10.682V134.94h7.957c0 10.4 8.43 18.835 18.835 18.835 10.4 0 18.83-8.435 18.83-18.835h7.956v34.498c0 4.311 1.98 8.159 5.083 10.682" fill="#2be0c6"/><path d="M131.163 134.939c0 10.402-8.432 18.834-18.834 18.834s-18.834-8.432-18.834-18.834c5.449 4.558 12.138 6.843 18.834 6.843s13.385-2.285 18.834-6.843" fill="#27c4aa"/><path fill="#fc7a51" d="M382.508 204.652h-70.442v20.923h70.442v-20.923"/><path d="M351.576 159.318h-8.579c-13.616 0-24.655 11.038-24.655 24.655v20.679h57.888v-20.679c.001-13.617-11.037-24.655-24.654-24.655" fill="#e86e4d"/><path d="M359.841 151.646c0-6.933-5.62-12.554-12.554-12.554-6.933 0-12.554 5.62-12.554 12.554s5.62 12.554 12.554 12.554c6.933 0 12.554-5.62 12.554-12.554" fill="#f9de58"/><path d="M412.449 30.692h-28l7.925 26.001h2.877v9.441l41.998 137.798V55.482c0-13.69-11.1-24.79-24.8-24.79" fill="#a9a9a9"/><path fill="#fff" d="M395.251 56.693h-2.877l2.877 9.441v-9.441"/><path fill="#767676" d="M317.429 30.692h-16.7l7.925 26.001h36.506l-27.731-26.001"/><path fill="#dbdbdb" d="M345.16 56.693h-36.506l13.697 44.942 28.758-39.363-5.949-5.579"/><path d="M390.177 324.177h-242.99l7.923 25.995H398.1l-7.923-25.995M144.589 30.692h-86.85l9.029 29.624v-3.622h50.091l27.73-26.002" fill="#a9a9a9"/><path d="M99.316 148.555a18.765 18.765 0 0 0 13.014 5.22 18.745 18.745 0 0 0-.001-.001 18.777 18.777 0 0 1-13.013-5.219m17.543-91.862H66.768v3.622l22.744 74.624h3.985c5.449 4.557 12.138 6.843 18.833 6.843s13.383-2.284 18.832-6.841v-.002h7.956v34.498c0 4.311 1.98 8.159 5.083 10.682v48.99h-25.989l28.974 95.067h242.99l-30.052-98.602h-48.059v-20.923h41.682-35.405v-20.679c0-11.833 8.336-21.719 19.456-24.106a12.507 12.507 0 0 1-3.066-8.221c0-1.932.436-3.761 1.216-5.396l-13.598-44.615-1.262 1.727-20.55-12.64v129.58h-139.06V90.722l-20.55 12.64-30.02-41.09 5.951-5.579" fill="#fff"/><path d="M131.163 134.939h-.002v.002l.002-.002m7.954 0h-7.954c0 6.291-3.084 11.862-7.823 15.282a18.745 18.745 0 0 1-11.009 3.553 18.765 18.765 0 0 1-13.014-5.22 18.779 18.779 0 0 1-5.821-13.616h-3.984l28.701 94.171H144.2v-48.99a13.731 13.731 0 0 1-5.083-10.682v-34.498" fill="#6fead8"/><path d="M131.163 134.939l-.002.002c-5.449 4.557-12.137 6.841-18.832 6.841s-13.384-2.285-18.833-6.842h-.001a18.779 18.779 0 0 0 5.821 13.616 18.772 18.772 0 0 0 13.013 5.218c4.111 0 7.914-1.317 11.01-3.552 4.739-3.421 7.824-8.992 7.824-15.283" fill="#6cd7c5"/><path fill="#fda589" d="M353.748 204.652h-41.682v20.923h48.059l-6.377-20.923"/><path d="M337.799 159.867c-11.12 2.387-19.456 12.273-19.456 24.106v20.679h35.405l-12.863-42.204a12.62 12.62 0 0 1-3.086-2.581" fill="#ef9d86"/><path d="M335.949 146.25a12.51 12.51 0 0 0-1.216 5.396c0 3.144 1.156 6.018 3.066 8.221a12.626 12.626 0 0 0 3.087 2.581l-4.937-16.198" fill="#fbe98e"/><path fill="#a2a2a2" d="M300.729 30.692h-156.14l-27.73 26.001h191.795l-7.925-26.001"/><path fill="#e7e7e7" d="M308.654 56.693H116.859l-5.95 5.579 30.02 41.09 20.55-12.64v129.58h139.06V90.722l20.55 12.64 1.262-1.727-13.697-44.942"/><path d="M272.097 0c23.166 25.526-18.394 89.86-41.087 89.86S173.93 25.527 189.923 0c11.888 9.943 26.48 14.929 41.087 14.929S260.209 9.943 272.097 0z" fill="#2091af"/><path d="M272.097 0c0 22.692-18.395 41.087-41.087 41.087S189.922 22.692 189.922 0a71.931 71.931 0 0 0-49.197 19.455l-29.817 27.954 30.025 41.087 20.544-12.642v129.583h139.065V75.853l20.544 12.642 30.025-41.087-29.817-27.954A71.938 71.938 0 0 0 272.097 0z" fill="#29abe2"/><path d="M352.012 305.48c-6.707-6.908-17.757-7-24.555-.201l-24.116 24.134c-13.872 13.854-37.566 4.031-37.566-15.558V167.028c0-9.463-7.482-17.479-16.944-17.582a17.017 17.017 0 0 0-12.283 5.02 17.017 17.017 0 0 0-5.021 12.113v75.095c0-4.618-1.814-8.814-4.801-11.911a17.256 17.256 0 0 0-3.976-3.115 17.144 17.144 0 0 0-8.466-2.217c-4.765 0-9.053 1.924-12.186 5.057a17.172 17.172 0 0 0-5.039 12.186v5.864c0-4.618-1.833-8.814-4.783-11.911a17.191 17.191 0 0 0-4.251-3.262 17.218 17.218 0 0 0-8.209-2.071 17.17 17.17 0 0 0-12.186 5.039c-3.115 3.134-5.057 7.44-5.057 12.204v14.44a17.12 17.12 0 0 0-4.783-11.911c-.073-.11-.165-.183-.256-.275a16.737 16.737 0 0 0-3.097-2.455 17.047 17.047 0 0 0-9.089-2.602c-9.529 0-17.243 7.733-17.243 17.244v84.752a46.21 46.21 0 0 0 2.62 15.338 46.053 46.053 0 0 0 7.623 13.579l.132.162c10.074 12.304 15.873 27.546 15.873 43.448v29.26h111.656v-25.373c0-11.483 6.478-21.89 16.632-27.254l.161-.085a104.23 104.23 0 0 0 27.487-21.22l37.621-40.718 4.379-4.728a16.728 16.728 0 0 0 4.086-7.77 17.083 17.083 0 0 0-4.363-15.889z" fill="#fcd18b"/><path d="M162.575 261.971v38.296c0 1.323-1.075 2.385-2.399 2.385s-2.385-1.061-2.385-2.385V250.06a17.156 17.156 0 0 1 4.784 11.911zm34.477-14.433v43.452a2.4 2.4 0 0 1-2.399 2.399 2.389 2.389 0 0 1-2.385-2.399v-55.362a17.173 17.173 0 0 1 4.784 11.91zm34.477-5.859v55.404a2.4 2.4 0 0 1-2.399 2.399 2.4 2.4 0 0 1-2.399-2.399v-67.314a17.072 17.072 0 0 1 4.798 11.91z" fill="#ddb57a"/><path d="M259.645 166.557c0-6.072-4.923-10.995-10.995-10.995-6.072 0-10.995 4.923-10.995 10.995 0 6.072 4.923 6.393 10.995 6.393 6.073 0 10.995-.321 10.995-6.393zm96.728 154.811a16.737 16.737 0 0 1-4.086 7.77l-4.379 4.728-12.296-12.314c5.717-5.718 14.953-5.791 20.761-.184z" fill="#fff"/></svg>