<svg height="512pt" viewBox="-80 0 512 512" width="512pt" xmlns="http://www.w3.org/2000/svg"><path d="M43.531 324.25c-3.668 0-6.902-2.66-7.504-6.398l-16.394-101.63a7.615 7.615 0 0 1 6.3-8.726 7.607 7.607 0 0 1 8.727 6.3l16.395 101.63c.668 4.148-2.153 8.058-6.301 8.726a7.66 7.66 0 0 1-1.223.098zm52.571 0a7.613 7.613 0 0 1-7.57-6.914l-9.42-102.426a7.61 7.61 0 0 1 6.883-8.273c4.192-.399 7.89 2.695 8.277 6.883l9.418 102.421a7.613 7.613 0 0 1-7.59 8.309zm53.464 0a7.61 7.61 0 0 1-7.601-7.324l-3.926-104.227a7.61 7.61 0 0 1 7.32-7.89c4.207-.125 7.735 3.12 7.891 7.32l3.926 104.223a7.613 7.613 0 0 1-7.32 7.894c-.094 0-.192.004-.29.004zm0 0" fill="#8cc0c5"/><path d="M333.383 324.809v171.41c0 4.515-4.153 8.168-13.871 8.168H22.418c-.508 0-4.656-3.653-4.656-8.168v-171.41c0-4.516 4.148-8.172 9.265-8.172h297.09c5.113 0 9.266 3.656 9.266 8.172zm0 0" fill="#fc992d"/><path d="M169.484 316.637H27.027c-5.117 0-9.265 3.656-9.265 8.172v171.41c0 4.515 4.148 8.168 4.656 8.168h147.066zm0 0" fill="#ef861d"/><path d="M56.18 353.125v-36.488H27.027c-5.117 0-9.265 3.656-9.265 8.172v171.41c0 4.515 4.148 8.168 4.656 8.168h147.066V466.43c-62.578 0-113.304-50.727-113.304-113.305zm0 0" fill="#d85c00"/><path d="M116.71 316.637v77.89c0 2.426-2.577 3.989-4.718 2.864l-18.625-9.711-18.62 9.71c-2.142 1.126-4.72-.437-4.72-2.863v-77.89zm0 0" fill="#fec12c"/><path d="M139.035 434.453v37.367a5.168 5.168 0 0 1-5.164 5.168H52.863a5.168 5.168 0 0 1-5.164-5.168v-37.367a5.165 5.165 0 0 1 5.164-5.164h81.008a5.165 5.165 0 0 1 5.164 5.164zm0 0" fill="#ffe8c2"/><path d="M94.953 464.3c-19.336 0-35.012-15.675-35.012-35.01h-7.078a5.165 5.165 0 0 0-5.164 5.163v37.367a5.168 5.168 0 0 0 5.164 5.168h81.008a5.168 5.168 0 0 0 5.164-5.168v-7.52zm0 0" fill="#f2d9b6"/><path d="M277.066 512c-.421 0-.851-.035-1.285-.11a7.607 7.607 0 0 1-6.226-8.777l49.496-290.87c.703-4.145 4.637-6.927 8.777-6.227a7.615 7.615 0 0 1 6.23 8.78l-49.495 290.868a7.616 7.616 0 0 1-7.497 6.336zm-38.562 0a7.613 7.613 0 0 1-7.586-8.348l28.32-291.972c.407-4.184 4.121-7.254 8.309-6.84a7.61 7.61 0 0 1 6.844 8.308l-28.32 291.973a7.613 7.613 0 0 1-7.567 6.879zm-41.614 0c-.097 0-.19-.004-.285-.004a7.615 7.615 0 0 1-7.328-7.887l10.657-290.87c.152-4.2 3.668-7.446 7.886-7.329 4.2.152 7.48 3.684 7.328 7.887l-10.656 290.867a7.614 7.614 0 0 1-7.601 7.336zm0 0" fill="#8cc0c5"/><path d="M351.145 175.57v47.137c0 3.016-3.364 4.84-5.872 3.168-16.5-11.012-32.789-8.176-48.933 4.5-20.227-17.234-39.426-15.691-57.848 0-20.633-15.559-41.273-15.559-61.906 0-19.84-15.04-40.563-13.375-61.906 0-18.157-12.89-37.602-11.023-57.848 0-16.445-10.484-33.66-10.637-51.48-2.637C2.84 228.868 0 227.043 0 224.29v-47.148C0 79.797 79.645-.762 176.98.004c47.934.379 91.274 19.953 122.739 51.418 31.777 31.777 51.426 75.66 51.426 124.148zm0 0" fill="#dceeef"/><path d="M81.715 196.117c0-96.133 77.683-175.887 173.37-177.113-23.48-11.95-50-18.777-78.1-19C79.644-.762 0 79.797 0 177.14v47.148c0 2.754 2.84 4.578 5.352 3.45 17.82-8 35.035-7.848 51.48 2.636 8.445-4.598 16.75-7.594 24.879-8.598v-25.66zm0 0" fill="#ccdbdb"/><path d="M238.492 230.375v-99.457c0-53.606-24.031-98.707-61.894-130.906 69.59 23.32 119.742 87.957 119.742 165.41v64.953c-20.227-17.234-39.426-15.691-57.848 0zm0 0" fill="#8effa4"/><path d="M176.598.012c9.851 8.379 18.757 17.64 26.558 27.687 6.051-2 12.242-3.668 18.555-5A177.472 177.472 0 0 0 176.598.012zM175.57 0h1.008C106.988 23.332 56.832 87.969 56.832 165.422v64.953c-16.445-10.484-33.66-10.637-51.48-2.637C2.84 228.868 0 227.043 0 224.29v-48.72C0 78.605 78.605 0 175.57 0zm0 0" fill="#5ded75"/><path d="M176.586.012v230.363c-19.84-15.04-40.563-13.375-61.906 0v-99.457c0-53.606 24.03-98.707 61.898-130.918h.008zm0 0" fill="#8effa4"/><path d="M176.586.012V.008h-.02c-26.492 22.539-46.199 51.398-55.652 85.058 15.188-18.914 34.133-34.668 55.672-46.043zm0 0" fill="#5ded75"/></svg>